<svg width="227" height="225" viewBox="0 0 227 225" fill="none" xmlns="http://www.w3.org/2000/svg">
<path d="M158.829 198.769C158.829 197.371 160.09 196.238 161.646 196.238H223.514C225.069 196.238 226.331 197.371 226.331 198.769V222.25C226.331 223.648 225.069 224.782 223.514 224.782H161.646C160.09 224.782 158.829 223.648 158.829 222.25V198.769Z" fill="#FF6B00"/>
<path d="M0 198.769C0 197.371 1.26124 196.238 2.81706 196.238H64.685C66.2408 196.238 67.5021 197.371 67.5021 198.769V222.25C67.5021 223.648 66.2408 224.782 64.685 224.782H2.81706C1.26124 224.782 0 223.648 0 222.25V198.769Z" fill="#FF6B00"/>
<path d="M79.4136 198.769C79.4136 197.371 80.6748 196.238 82.2306 196.238H144.099C145.654 196.238 146.916 197.371 146.916 198.769V222.25C146.916 223.648 145.654 224.782 144.099 224.782H82.2306C80.6748 224.782 79.4136 223.648 79.4136 222.25V198.769Z" fill="#FF6B00"/>
<path d="M158.829 120.274C158.829 118.876 160.09 117.743 161.646 117.743H223.514C225.069 117.743 226.331 118.876 226.331 120.274V143.755C226.331 145.153 225.069 146.287 223.514 146.287H161.646C160.09 146.287 158.829 145.153 158.829 143.755V120.274Z" fill="#FF6B00"/>
<path d="M158.829 41.779C158.829 40.381 160.09 39.2477 161.646 39.2477H223.514C225.069 39.2477 226.331 40.381 226.331 41.779V65.26C226.331 66.658 225.069 67.7913 223.514 67.7913H161.646C160.09 67.7913 158.829 66.658 158.829 65.26V41.779Z" fill="#FF6B00"/>
<path d="M79.4136 120.274C79.4136 118.876 80.6748 117.743 82.2306 117.743H144.099C145.654 117.743 146.916 118.876 146.916 120.274V143.755C146.916 145.153 145.654 146.287 144.099 146.287H82.2306C80.6748 146.287 79.4136 145.153 79.4136 143.755V120.274Z" fill="#FF6B00"/>
<path d="M194.564 159.521C194.564 158.123 195.826 156.99 197.382 156.99H223.513C225.069 156.99 226.33 158.123 226.33 159.521V183.002C226.33 184.4 225.069 185.534 223.513 185.534H197.382C195.826 185.534 194.564 184.4 194.564 183.002V159.521Z" fill="#FF6B00"/>
<path d="M35.7361 159.521C35.7361 158.123 36.9973 156.99 38.5531 156.99H100.421C101.977 156.99 103.238 158.123 103.238 159.521V183.002C103.238 184.4 101.977 185.534 100.421 185.534H38.5531C36.9973 185.534 35.7361 184.4 35.7361 183.002V159.521Z" fill="#FF6B00"/>
<path d="M115.151 159.521C115.151 158.123 116.412 156.99 117.968 156.99H179.836C181.391 156.99 182.653 158.123 182.653 159.521V183.002C182.653 184.4 181.391 185.534 179.836 185.534H117.968C116.412 185.534 115.151 184.4 115.151 183.002V159.521Z" fill="#FF6B00"/>
<path d="M194.564 81.0263C194.564 79.6283 195.826 78.495 197.382 78.495H223.513C225.069 78.495 226.33 79.6283 226.33 81.0263V104.507C226.33 105.905 225.069 107.039 223.513 107.039H197.382C195.826 107.039 194.564 105.905 194.564 104.507V81.0263Z" fill="#FF6B00"/>
<path d="M194.564 2.53132C194.564 1.13331 195.826 0 197.382 0H223.513C225.069 0 226.33 1.13331 226.33 2.53132V26.0123C226.33 27.4103 225.069 28.5437 223.513 28.5437H197.382C195.826 28.5437 194.564 27.4104 194.564 26.0123V2.53132Z" fill="#FF6B00"/>
<path d="M115.151 81.0263C115.151 79.6283 116.412 78.495 117.968 78.495H179.836C181.391 78.495 182.653 79.6283 182.653 81.0263V104.507C182.653 105.905 181.391 107.039 179.836 107.039H117.968C116.412 107.039 115.151 105.905 115.151 104.507V81.0263Z" fill="#FF6B00"/>
</svg>
