<svg width="564" height="257" viewBox="0 0 564 257" fill="none" xmlns="http://www.w3.org/2000/svg">
<path d="M271.703 31.6406V72.0704C271.703 76.0254 270.384 79.4678 267.748 82.3975C265.111 85.1807 261.815 86.9385 257.86 87.671V88.1104C261.815 88.8428 265.111 90.6739 267.748 93.6036C270.384 96.3868 271.703 99.7559 271.703 103.711V144.141C271.703 154.395 268.993 162.232 263.573 167.651C258.153 173.071 250.243 175.781 239.842 175.781H187.108C184.764 175.781 183.592 174.61 183.592 172.266V3.51562C183.592 1.17187 184.764 0 187.108 0H239.842C250.243 0 258.153 2.70996 263.573 8.12989C268.993 13.5498 271.703 21.3867 271.703 31.6406ZM242.479 64.8194V37.793C242.479 31.9336 239.549 29.0039 233.69 29.0039H213.695V73.3887H233.69C239.549 73.3887 242.479 70.5323 242.479 64.8194ZM242.479 137.988V111.182C242.479 105.322 239.549 102.393 233.69 102.393H213.695V146.777H233.69C239.549 146.777 242.479 143.848 242.479 137.988Z" fill="#FF6B00"/>
<path d="M381.781 31.6406V72.0704C381.781 76.0254 380.462 79.4678 377.825 82.3975C375.189 85.1807 371.893 86.9385 367.938 87.671V88.1104C371.893 88.8428 375.189 90.6739 377.825 93.6036C380.462 96.3868 381.781 99.7559 381.781 103.711V144.141C381.781 154.395 379.071 162.232 373.651 167.651C368.231 173.071 360.321 175.781 349.92 175.781H297.186C294.842 175.781 293.67 174.61 293.67 172.266V3.51562C293.67 1.17187 294.842 0 297.186 0H349.92C360.321 0 368.231 2.70996 373.651 8.12989C379.071 13.5498 381.781 21.3867 381.781 31.6406ZM352.557 64.8194V37.793C352.557 31.9336 349.627 29.0039 343.768 29.0039H323.773V73.3887H343.768C349.627 73.3887 352.557 70.5323 352.557 64.8194ZM352.557 137.988V111.182C352.557 105.322 349.627 102.393 343.768 102.393H323.773V146.777H343.768C349.627 146.777 352.557 143.848 352.557 137.988Z" fill="#FF6B00"/>
<path d="M491.419 3.51562V25.4883C491.419 27.9785 490.247 29.2236 487.903 29.2236H432.972V73.169H474.94C477.283 73.169 478.455 74.4141 478.455 76.9044V98.6573C478.455 101.148 477.283 102.393 474.94 102.393H432.972V146.777H487.903C490.247 146.777 491.419 147.949 491.419 150.293V172.266C491.419 174.61 490.247 175.781 487.903 175.781H407.044C404.847 175.781 403.748 174.61 403.748 172.266V3.51562C403.748 1.17187 404.847 0 407.044 0H487.903C490.247 0 491.419 1.17187 491.419 3.51562Z" fill="#FF6B00"/>
<path d="M509.821 172.931V162.796C509.821 161.872 510.065 161.166 510.553 160.678C511.042 160.189 511.748 159.945 512.672 159.945H515.285C516.208 159.945 516.914 160.189 517.403 160.678C517.891 161.166 518.135 161.872 518.135 162.796V164.855C518.135 165.066 518.029 165.171 517.818 165.171H515.839C515.628 165.171 515.522 165.066 515.522 164.855V163.35C515.522 162.822 515.258 162.558 514.73 162.558H513.305C512.777 162.558 512.513 162.822 512.513 163.35V172.377C512.513 172.905 512.777 173.169 513.305 173.169H514.73C515.258 173.169 515.522 172.905 515.522 172.377V169.724H514.493C514.282 169.724 514.176 169.619 514.176 169.407V167.428C514.176 167.217 514.282 167.111 514.493 167.111H517.818C518.029 167.111 518.135 167.217 518.135 167.428V172.931C518.135 173.855 517.891 174.561 517.403 175.049C516.914 175.537 516.208 175.781 515.285 175.781H512.672C511.748 175.781 511.042 175.537 510.553 175.049C510.065 174.561 509.821 173.855 509.821 172.931Z" fill="#FF6B00"/>
<path d="M532.339 161.925H534.952C535.216 161.925 535.348 162.057 535.348 162.321V175.386C535.348 175.65 535.216 175.781 534.952 175.781H533.111C532.847 175.781 532.715 175.65 532.715 175.386V167.606H532.576L530.715 175.445C530.65 175.669 530.504 175.781 530.28 175.781H529.112C528.888 175.781 528.743 175.669 528.677 175.445L526.816 167.606H526.677V175.386C526.677 175.65 526.545 175.781 526.281 175.781H524.46C524.196 175.781 524.064 175.65 524.064 175.386V162.321C524.064 162.057 524.196 161.925 524.46 161.925H527.073C527.298 161.925 527.443 162.037 527.509 162.261L529.706 171.09L531.903 162.261C531.969 162.037 532.114 161.925 532.339 161.925Z" fill="#FF6B00"/>
<path d="M549.222 164.775V167.448C549.222 167.804 549.104 168.114 548.866 168.378C548.629 168.629 548.332 168.787 547.975 168.853V168.893C548.332 168.959 548.629 169.124 548.866 169.388C549.104 169.638 549.222 169.942 549.222 170.298V172.931C549.222 173.855 548.978 174.561 548.49 175.049C548.002 175.537 547.289 175.781 546.352 175.781H541.601C541.39 175.781 541.285 175.676 541.285 175.465V162.242C541.285 162.03 541.39 161.925 541.601 161.925H546.352C547.289 161.925 548.002 162.169 548.49 162.657C548.978 163.146 549.222 163.852 549.222 164.775ZM546.708 166.794V165.211C546.708 164.683 546.445 164.419 545.917 164.419H543.739V167.566H545.917C546.445 167.566 546.708 167.309 546.708 166.794ZM546.708 172.495V170.971C546.708 170.443 546.445 170.179 545.917 170.179H543.739V173.287H545.917C546.445 173.287 546.708 173.023 546.708 172.495Z" fill="#FF6B00"/>
<path d="M560.386 166.557V160.262C560.386 160.051 560.492 159.945 560.703 159.945H562.742C562.966 159.945 563.079 160.051 563.079 160.262V175.465C563.079 175.676 562.966 175.781 562.742 175.781H560.703C560.492 175.781 560.386 175.676 560.386 175.465V169.17H557.853V175.465C557.853 175.676 557.747 175.781 557.536 175.781H555.497C555.273 175.781 555.161 175.676 555.161 175.465V160.262C555.161 160.051 555.273 159.945 555.497 159.945H557.536C557.747 159.945 557.853 160.051 557.853 160.262V166.557H560.386Z" fill="#FF6B00"/>
<path d="M111.608 155.44C111.608 154.346 112.494 153.46 113.587 153.46H157.061C158.154 153.46 159.041 154.346 159.041 155.44V173.802C159.041 174.895 158.154 175.782 157.061 175.782H113.587C112.494 175.782 111.608 174.895 111.608 173.802V155.44Z" fill="#FF6B00"/>
<path d="M0 155.44C0 154.346 0.886261 153.46 1.97952 153.46H45.4536C46.5468 153.46 47.4331 154.346 47.4331 155.44V173.802C47.4331 174.895 46.5468 175.782 45.4536 175.782H1.97952C0.886261 175.782 0 174.895 0 173.802V155.44Z" fill="#FF6B00"/>
<path d="M55.8032 155.44C55.8032 154.346 56.6895 153.46 57.7827 153.46H101.257C102.35 153.46 103.236 154.346 103.236 155.44V173.802C103.236 174.895 102.35 175.782 101.257 175.782H57.7827C56.6895 175.782 55.8032 174.895 55.8032 173.802V155.44Z" fill="#FF6B00"/>
<path d="M111.608 94.0557C111.608 92.9624 112.494 92.0762 113.587 92.0762H157.061C158.154 92.0762 159.041 92.9624 159.041 94.0557V112.418C159.041 113.511 158.154 114.398 157.061 114.398H113.587C112.494 114.398 111.608 113.511 111.608 112.418V94.0557Z" fill="#FF6B00"/>
<path d="M111.608 32.6717C111.608 31.5784 112.494 30.6921 113.587 30.6921H157.061C158.154 30.6921 159.041 31.5784 159.041 32.6717V51.0341C159.041 52.1273 158.154 53.0136 157.061 53.0136H113.587C112.494 53.0136 111.608 52.1273 111.608 51.0341V32.6717Z" fill="#FF6B00"/>
<path d="M55.8032 94.0557C55.8032 92.9624 56.6895 92.0762 57.7827 92.0762H101.257C102.35 92.0762 103.236 92.9624 103.236 94.0557V112.418C103.236 113.511 102.35 114.398 101.257 114.398H57.7827C56.6895 114.398 55.8032 113.511 55.8032 112.418V94.0557Z" fill="#FF6B00"/>
<path d="M136.719 124.747C136.719 123.654 137.605 122.768 138.698 122.768H157.061C158.154 122.768 159.04 123.654 159.04 124.747V143.11C159.04 144.203 158.154 145.089 157.061 145.089H138.698C137.605 145.089 136.719 144.203 136.719 143.11V124.747Z" fill="#FF6B00"/>
<path d="M25.1113 124.747C25.1113 123.654 25.9976 122.768 27.0908 122.768H70.5649C71.6581 122.768 72.5444 123.654 72.5444 124.747V143.11C72.5444 144.203 71.6581 145.089 70.5649 145.089H27.0908C25.9976 145.089 25.1113 144.203 25.1113 143.11V124.747Z" fill="#FF6B00"/>
<path d="M80.9153 124.747C80.9153 123.654 81.8015 122.768 82.8948 122.768H126.369C127.462 122.768 128.348 123.654 128.348 124.747V143.11C128.348 144.203 127.462 145.089 126.369 145.089H82.8948C81.8015 145.089 80.9153 144.203 80.9153 143.11V124.747Z" fill="#FF6B00"/>
<path d="M136.719 63.3636C136.719 62.2703 137.605 61.384 138.698 61.384H157.061C158.154 61.384 159.04 62.2703 159.04 63.3636V81.726C159.04 82.8192 158.154 83.7055 157.061 83.7055H138.698C137.605 83.7055 136.719 82.8192 136.719 81.726V63.3636Z" fill="#FF6B00"/>
<path d="M136.719 1.97952C136.719 0.886263 137.605 0 138.698 0H157.061C158.154 0 159.04 0.886261 159.04 1.97952V20.3419C159.04 21.4352 158.154 22.3214 157.061 22.3214H138.698C137.605 22.3214 136.719 21.4352 136.719 20.3419V1.97952Z" fill="#FF6B00"/>
<path d="M80.9153 63.3636C80.9153 62.2703 81.8015 61.384 82.8948 61.384H126.369C127.462 61.384 128.348 62.2703 128.348 63.3636V81.726C128.348 82.8192 127.462 83.7055 126.369 83.7055H82.8948C81.8015 83.7055 80.9153 82.8192 80.9153 81.726V63.3636Z" fill="#FF6B00"/>
<path d="M24.3569 218.634V229.379C24.3569 230.43 24.0065 231.345 23.3058 232.123C22.605 232.863 21.7291 233.33 20.678 233.525V233.642C21.7291 233.836 22.605 234.323 23.3058 235.101C24.0065 235.841 24.3569 236.737 24.3569 237.788V248.533C24.3569 251.258 23.6367 253.34 22.1963 254.781C20.7558 256.221 18.6536 256.942 15.8895 256.942H1.87452C1.25163 256.942 0.940186 256.63 0.940186 256.007V211.159C0.940186 210.536 1.25163 210.225 1.87452 210.225H15.8895C18.6536 210.225 20.7558 210.945 22.1963 212.386C23.6367 213.826 24.3569 215.909 24.3569 218.634ZM16.5903 227.452V220.269C16.5903 218.712 15.8117 217.933 14.2544 217.933H8.94042V229.729H14.2544C15.8117 229.729 16.5903 228.97 16.5903 227.452ZM16.5903 246.897V239.773C16.5903 238.216 15.8117 237.437 14.2544 237.437H8.94042V249.233H14.2544C15.8117 249.233 16.5903 248.455 16.5903 246.897Z" fill="#FF6B00"/>
<path d="M56.6227 216.999V222.838C56.6227 223.5 56.3113 223.831 55.6884 223.831H41.2646V232.824H52.243C52.8659 232.824 53.1774 233.155 53.1774 233.817V239.598C53.1774 240.26 52.8659 240.591 52.243 240.591H41.2646V249.233H55.6884C56.3113 249.233 56.6227 249.545 56.6227 250.168V256.007C56.6227 256.63 56.3113 256.942 55.6884 256.942H34.1987C33.6148 256.942 33.3228 256.63 33.3228 256.007V216.999C33.3228 216.376 33.6148 216.064 34.1987 216.064H55.6884C56.3113 216.064 56.6227 216.376 56.6227 216.999Z" fill="#FF6B00"/>
<path d="M72.2325 216.064H78.7728C81.4979 216.064 83.5807 216.785 85.0212 218.225C86.4616 219.666 87.1818 221.748 87.1818 224.473V228.328C87.1818 228.95 86.8704 229.262 86.2475 229.262H80.3495C79.7266 229.262 79.4152 228.95 79.4152 228.328V225.875C79.4152 224.318 78.6366 223.539 77.0793 223.539H73.8676C72.3103 223.539 71.5317 224.318 71.5317 225.875V230.839L85.6635 235.393C86.6757 235.744 87.1818 236.464 87.1818 237.554V248.533C87.1818 251.258 86.4616 253.34 85.0212 254.781C83.5807 256.221 81.4979 256.942 78.7728 256.942H72.2325C69.5073 256.942 67.4246 256.221 65.9841 254.781C64.5437 253.34 63.8235 251.258 63.8235 248.533V244.737C63.8235 244.114 64.1349 243.802 64.7578 243.802H70.6558C71.2787 243.802 71.5901 244.114 71.5901 244.737V247.189C71.5901 248.747 72.3687 249.525 73.9259 249.525H77.0793C78.6366 249.525 79.4152 248.747 79.4152 247.189V241.291L65.4002 236.737C64.349 236.386 63.8235 235.666 63.8235 234.576V224.473C63.8235 221.748 64.5437 219.666 65.9841 218.225C67.4246 216.785 69.5073 216.064 72.2325 216.064Z" fill="#FF6B00"/>
<path d="M115.637 216.064H94.1476C93.5247 216.064 93.2133 216.376 93.2133 216.999V222.838C93.2133 223.461 93.5247 223.773 94.1476 223.773H100.922V256.007C100.922 256.63 101.233 256.942 101.856 256.942H107.929C108.552 256.942 108.863 256.63 108.863 256.007V223.773H115.637C116.26 223.773 116.572 223.461 116.572 222.838V216.999C116.572 216.376 116.26 216.064 115.637 216.064Z" fill="#FF6B00"/>
<path d="M165.512 218.634V229.379C165.512 230.43 165.162 231.345 164.461 232.123C163.76 232.863 162.884 233.33 161.833 233.525V233.642C162.884 233.836 163.76 234.323 164.461 235.101C165.162 235.841 165.512 236.737 165.512 237.788V248.533C165.512 251.258 164.792 253.34 163.351 254.781C161.911 256.221 159.809 256.942 157.045 256.942H143.03C142.407 256.942 142.095 256.63 142.095 256.007V211.159C142.095 210.536 142.407 210.225 143.03 210.225H157.045C159.809 210.225 161.911 210.945 163.351 212.386C164.792 213.826 165.512 215.909 165.512 218.634ZM157.745 227.452V220.269C157.745 218.712 156.967 217.933 155.41 217.933H150.095V229.729H155.41C156.967 229.729 157.745 228.97 157.745 227.452ZM157.745 246.897V239.773C157.745 238.216 156.967 237.437 155.41 237.437H150.095V249.233H155.41C156.967 249.233 157.745 248.455 157.745 246.897Z" fill="#FF6B00"/>
<path d="M199.703 256.942H194.038C193.532 256.942 193.221 256.669 193.104 256.124L191.235 248.766H180.257L178.446 256.124C178.33 256.669 178.018 256.942 177.512 256.942H171.789C171.089 256.942 170.836 256.611 171.03 255.949L180.724 216.882C180.841 216.337 181.172 216.064 181.717 216.064H189.834C190.379 216.064 190.71 216.337 190.826 216.882L200.52 255.949C200.715 256.611 200.442 256.942 199.703 256.942ZM189.425 241.992L185.746 226.109L182.067 241.992H189.425Z" fill="#FF6B00"/>
<path d="M223.45 216.064H228.823C229.134 216.064 229.407 216.181 229.64 216.415C229.874 216.648 229.991 216.921 229.991 217.232V248.533C229.991 251.258 229.27 253.34 227.83 254.781C226.39 256.221 224.307 256.942 221.582 256.942H215.041C212.316 256.942 210.233 256.221 208.793 254.781C207.353 253.34 206.632 251.258 206.632 248.533V217.232C206.632 216.921 206.749 216.648 206.983 216.415C207.216 216.181 207.489 216.064 207.8 216.064H213.406C213.718 216.064 213.99 216.181 214.224 216.415C214.457 216.648 214.574 216.921 214.574 217.232V246.897C214.574 248.455 215.353 249.233 216.91 249.233H219.947C221.504 249.233 222.282 248.455 222.282 246.897V217.232C222.282 216.921 222.399 216.648 222.633 216.415C222.866 216.181 223.139 216.064 223.45 216.064Z" fill="#FF6B00"/>
<path d="M262.258 211.159V216.999C262.258 217.661 261.946 217.991 261.323 217.991H246.725V229.671H257.878C258.501 229.671 258.812 230.002 258.812 230.663V236.445C258.812 237.106 258.501 237.437 257.878 237.437H246.725V249.233H261.323C261.946 249.233 262.258 249.545 262.258 250.168V256.007C262.258 256.63 261.946 256.942 261.323 256.942H239.834C239.25 256.942 238.958 256.63 238.958 256.007V211.159C238.958 210.536 239.25 210.225 239.834 210.225H261.323C261.946 210.225 262.258 210.536 262.258 211.159Z" fill="#FF6B00"/>
<path d="M289.271 236.036L299.081 255.54C299.276 255.929 299.295 256.26 299.14 256.533C298.984 256.805 298.672 256.942 298.205 256.942H292.191C291.568 256.942 291.12 256.669 290.847 256.124L284.657 243.452L278.467 256.124C278.195 256.669 277.747 256.942 277.124 256.942H271.11C270.642 256.942 270.331 256.805 270.175 256.533C270.02 256.26 270.039 255.929 270.234 255.54L280.103 236.036L270.818 217.466C270.623 217.077 270.604 216.746 270.759 216.473C270.915 216.201 271.226 216.064 271.694 216.064H277.708C278.331 216.064 278.779 216.337 279.051 216.882L284.657 228.678L290.263 216.882C290.536 216.337 290.984 216.064 291.607 216.064H297.621C298.089 216.064 298.4 216.201 298.556 216.473C298.711 216.746 298.692 217.077 298.497 217.466L289.271 236.036Z" fill="#FF6B00"/>
<path d="M307.658 256.007V216.999C307.658 216.376 307.969 216.064 308.592 216.064H322.607C325.332 216.064 327.415 216.785 328.856 218.225C330.296 219.666 331.016 221.748 331.016 224.473V235.919C331.016 241.447 328.213 244.25 322.607 244.328L315.249 244.386V256.066C315.249 256.688 314.938 257 314.315 257L308.592 256.942C307.969 256.942 307.658 256.63 307.658 256.007ZM315.249 236.853L321.089 236.795C322.646 236.795 323.425 236.016 323.425 234.459V225.933C323.425 224.376 322.646 223.597 321.089 223.597L315.249 223.656V236.853Z" fill="#FF6B00"/>
<path d="M363.283 216.999V222.838C363.283 223.5 362.972 223.831 362.349 223.831H347.925V232.824H358.904C359.527 232.824 359.838 233.155 359.838 233.817V239.598C359.838 240.26 359.527 240.591 358.904 240.591H347.925V249.233H362.349C362.972 249.233 363.283 249.545 363.283 250.168V256.007C363.283 256.63 362.972 256.942 362.349 256.942H340.859C340.275 256.942 339.983 256.63 339.983 256.007V216.999C339.983 216.376 340.275 216.064 340.859 216.064H362.349C362.972 216.064 363.283 216.376 363.283 216.999Z" fill="#FF6B00"/>
<path d="M395.04 224.473V236.211C395.04 239.598 393.95 241.973 391.77 243.335L394.807 255.89C394.962 256.591 394.69 256.942 393.989 256.942H388.266C387.721 256.942 387.39 256.669 387.273 256.124L384.47 244.62H379.273V256.007C379.273 256.63 378.962 256.942 378.339 256.942H372.616C371.993 256.942 371.682 256.63 371.682 256.007V216.999C371.682 216.376 371.993 216.064 372.616 216.064H386.631C389.356 216.064 391.439 216.785 392.879 218.225C394.32 219.666 395.04 221.748 395.04 224.473ZM379.273 237.087H385.113C386.67 237.087 387.449 236.308 387.449 234.751V225.933C387.449 224.376 386.67 223.597 385.113 223.597H379.273V237.087Z" fill="#FF6B00"/>
<path d="M425.263 216.064H403.774C403.151 216.064 402.839 216.376 402.839 216.999V222.838C402.839 223.461 403.151 223.773 403.774 223.773H410.548V256.007C410.548 256.63 410.859 256.942 411.482 256.942H417.555C418.178 256.942 418.489 256.63 418.489 256.007V223.773H425.263C425.886 223.773 426.198 223.461 426.198 222.838V216.999C426.198 216.376 425.886 216.064 425.263 216.064Z" fill="#FF6B00"/>
<path d="M457.295 216.999V222.838C457.295 223.5 456.983 223.831 456.36 223.831H441.937V232.824H452.915C453.538 232.824 453.849 233.155 453.849 233.817V239.598C453.849 240.26 453.538 240.591 452.915 240.591H441.937V249.233H456.36C456.983 249.233 457.295 249.545 457.295 250.168V256.007C457.295 256.63 456.983 256.942 456.36 256.942H434.871C434.287 256.942 433.995 256.63 433.995 256.007V216.999C433.995 216.376 434.287 216.064 434.871 216.064H456.36C456.983 216.064 457.295 216.376 457.295 216.999Z" fill="#FF6B00"/>
<path d="M484.775 216.064H490.264C490.887 216.064 491.198 216.376 491.198 216.999V256.007C491.198 256.63 490.887 256.942 490.264 256.942H485.651C485.184 256.942 484.833 256.688 484.6 256.182L473.621 233.875V256.007C473.621 256.63 473.31 256.942 472.687 256.942H467.198C466.575 256.942 466.263 256.63 466.263 256.007V216.999C466.263 216.376 466.575 216.064 467.198 216.064H471.811C472.278 216.064 472.628 216.317 472.862 216.824L483.84 239.131V216.999C483.84 216.376 484.152 216.064 484.775 216.064Z" fill="#FF6B00"/>
</svg>
